<svg xmlns="http://www.w3.org/2000/svg" xmlns:xlink="http://www.w3.org/1999/xlink" viewBox="0 0 1705 662"><defs><style>.cls-1{fill:#898b8d;}.cls-2{fill:#9c9ea1;}.cls-3{fill:url(#linear-gradient);}.cls-4{fill:url(#linear-gradient-2);}.cls-5{fill:url(#linear-gradient-3);}.cls-6{fill:url(#linear-gradient-4);}.cls-7{fill:url(#linear-gradient-5);}.cls-8{fill:url(#linear-gradient-6);}.cls-9{fill:url(#linear-gradient-7);}.cls-10{fill:url(#linear-gradient-8);}.cls-11{fill:url(#linear-gradient-9);}.cls-12{fill:url(#linear-gradient-10);}.cls-13{fill:url(#linear-gradient-11);}.cls-14{fill:url(#linear-gradient-12);}.cls-15{fill:url(#linear-gradient-13);}.cls-16{fill:url(#linear-gradient-14);}</style><linearGradient id="linear-gradient" x1="1010.3" y1="135.95" x2="1419.57" y2="135.95" gradientTransform="matrix(-0.02, 1, -1, -0.02, 1402.53, -1063.9)" gradientUnits="userSpaceOnUse"><stop offset="0" stop-color="#c8cacb"/><stop offset="0.32" stop-color="#a4a6a7"/><stop offset="0.81" stop-color="#67686b"/></linearGradient><linearGradient id="linear-gradient-2" x1="1269.61" y1="186.95" x2="975.69" y2="-177.26" gradientTransform="translate(1368.84 -1084.15) rotate(91.27)" gradientUnits="userSpaceOnUse"><stop offset="0" stop-color="#c8cacb"/><stop offset="0.19" stop-color="#a5a6a7"/><stop offset="0.62" stop-color="#4c4a4b"/><stop offset="0.81" stop-color="#231f20"/></linearGradient><linearGradient id="linear-gradient-3" x1="299.88" y1="393.99" x2="818.97" y2="393.99" gradientTransform="matrix(1, -0.01, 0.01, 1.38, -37.22, -252.53)" xlink:href="#linear-gradient"/><linearGradient id="linear-gradient-4" x1="629.55" y1="460.27" x2="247.73" y2="-12.86" gradientTransform="matrix(1, -0.01, 0.01, 1.38, -37.59, -253.09)" xlink:href="#linear-gradient-2"/><linearGradient id="linear-gradient-5" x1="430.31" y1="-4.17" x2="617.63" y2="-4.17" gradientTransform="matrix(1, -0.03, 0.02, 0.67, -32.65, 83.01)" xlink:href="#linear-gradient"/><linearGradient id="linear-gradient-6" x1="550.85" y1="19.79" x2="401.99" y2="-164.68" gradientTransform="matrix(1, -0.03, 0.02, 0.67, -34.03, 82.06)" xlink:href="#linear-gradient-2"/><linearGradient id="linear-gradient-7" x1="783.03" y1="11.49" x2="970.36" y2="11.49" gradientTransform="matrix(0.02, 0.83, -0.5, 0.01, 814.18, -683.89)" xlink:href="#linear-gradient"/><linearGradient id="linear-gradient-8" x1="905.04" y1="33.89" x2="755.67" y2="-151.2" gradientTransform="matrix(0.02, 0.83, -0.5, 0.01, 803.4, -689.24)" xlink:href="#linear-gradient-2"/><linearGradient id="linear-gradient-9" x1="711.75" y1="133.95" x2="809.02" y2="133.95" gradientTransform="matrix(0.02, 0.83, -0.5, 0.01, 781.03, -527.13)" xlink:href="#linear-gradient"/><linearGradient id="linear-gradient-10" x1="773.88" y1="146.29" x2="696.76" y2="50.72" gradientTransform="matrix(0.02, 0.83, -0.5, 0.01, 775.24, -528.5)" xlink:href="#linear-gradient-2"/><linearGradient id="linear-gradient-11" x1="1089.32" y1="-32.28" x2="1186.86" y2="-32.28" gradientTransform="matrix(0.02, 0.83, -0.5, 0.01, 1003.6, -923.88)" xlink:href="#linear-gradient"/><linearGradient id="linear-gradient-12" x1="1152.3" y1="-20.94" x2="1075.92" y2="-115.57" gradientTransform="matrix(0.02, 0.83, -0.5, 0.01, 1002.02, -926.71)" xlink:href="#linear-gradient-2"/><linearGradient id="linear-gradient-13" x1="931.35" y1="192.38" x2="1053.83" y2="192.38" gradientTransform="matrix(0.02, 0.83, -0.5, 0.01, 998.98, -693.12)" xlink:href="#linear-gradient"/><linearGradient id="linear-gradient-14" x1="1010.84" y1="207.86" x2="914.26" y2="88.18" gradientTransform="matrix(0.02, 0.83, -0.5, 0.01, 992.91, -695.94)" xlink:href="#linear-gradient-2"/></defs><title>Asset 16</title><g id="Layer_2" data-name="Layer 2"><g id="Layer_1-2" data-name="Layer 1"><ellipse class="cls-1" cx="852.5" cy="331" rx="852.5" ry="331"/><ellipse class="cls-2" cx="839.5" cy="235" rx="626.5" ry="233"/><ellipse class="cls-3" cx="1238" cy="147.5" rx="83.82" ry="204.68" transform="translate(980.06 1367.28) rotate(-84.85)"/><ellipse class="cls-4" cx="1233" cy="120" rx="56.41" ry="157.57" transform="translate(1001.13 1336.93) rotate(-84.77)"/><ellipse class="cls-5" cx="527.5" cy="285.5" rx="259.55" ry="146.41" transform="translate(-6.67 12.69) rotate(-1.37)"/><ellipse class="cls-6" cx="514.5" cy="238" rx="199.55" ry="98.9" transform="translate(-5.89 13.17) rotate(-1.46)"/><ellipse class="cls-7" cx="491" cy="64.5" rx="93.7" ry="32.53" transform="translate(-4.22 64.55) rotate(-7.49)"/><ellipse class="cls-8" cx="484.5" cy="55" rx="72.08" ry="22.17" transform="translate(-3 65.24) rotate(-7.68)"/><ellipse class="cls-9" cx="827" cy="46" rx="23.95" ry="78.01" transform="translate(764.65 871.93) rotate(-88.87)"/><ellipse class="cls-10" cx="824" cy="37.5" rx="16.46" ry="60.01" transform="translate(770.95 860.65) rotate(-88.92)"/><ellipse class="cls-11" cx="730.5" cy="107.5" rx="12.48" ry="40.51" transform="translate(608.51 835.72) rotate(-88.86)"/><ellipse class="cls-12" cx="728" cy="103.5" rx="8.48" ry="31.01" transform="translate(610.82 829.42) rotate(-88.92)"/><ellipse class="cls-13" cx="1044.5" cy="23" rx="12.61" ry="40.62" transform="translate(936.4 1062.15) rotate(-85.32)"/><ellipse class="cls-14" cx="1043" cy="18.5" rx="8.18" ry="31.09" transform="translate(944.22 1056.98) rotate(-85.58)"/><ellipse class="cls-15" cx="924" cy="135.5" rx="15.47" ry="51.01" transform="translate(770.51 1056.68) rotate(-88.88)"/><ellipse class="cls-16" cx="922" cy="130.5" rx="10.48" ry="39.01" transform="translate(774.54 1049.94) rotate(-88.94)"/></g></g></svg>