<svg xmlns="http://www.w3.org/2000/svg" xmlns:xlink="http://www.w3.org/1999/xlink" viewBox="0 0 756 1368"><defs><style>.cls-1{fill:url(#linear-gradient);}.cls-2{fill:#fff;}</style><linearGradient id="linear-gradient" x1="378" y1="1368" x2="378" gradientUnits="userSpaceOnUse"><stop offset="0" stop-color="#00006b"/><stop offset="1" stop-color="#00001c"/></linearGradient></defs><title>Asset 10</title><g id="Layer_2" data-name="Layer 2"><g id="Layer_1-2" data-name="Layer 1"><rect class="cls-1" width="756" height="1368"/><path class="cls-2" d="M129.74,170.39c3.22,0,3.23-5,0-5s-3.22,5,0,5Z"/><path class="cls-2" d="M504.3,232.44c3.22,0,3.22-5,0-5s-3.22,5,0,5Z"/><path class="cls-2" d="M616.89,103.76c3.22,0,3.23-5,0-5s-3.22,5,0,5Z"/><path class="cls-2" d="M256.13,471.41c3.21,0,3.22-5,0-5s-3.22,5,0,5Z"/><path class="cls-2" d="M444.55,577.12c3.22,0,3.23-5,0-5s-3.22,5,0,5Z"/><path class="cls-2" d="M622,474h1a7.72,7.72,0,0,0,7.5-7.5l-.27-2a7.4,7.4,0,0,0-1.93-3.31L626.79,460a7.53,7.53,0,0,0-3.79-1h-1a7.72,7.72,0,0,0-7.5,7.5l.27,2a7.4,7.4,0,0,0,1.93,3.31l1.51,1.18a7.53,7.53,0,0,0,3.79,1Z"/><path class="cls-2" d="M242.34,1050.12c3.92,0,7.68-3.45,7.5-7.5a7.62,7.62,0,0,0-7.5-7.5c-3.92,0-7.68,3.45-7.5,7.5a7.63,7.63,0,0,0,7.5,7.5Z"/><path class="cls-2" d="M591.62,1188c3.92,0,7.68-3.45,7.5-7.5a7.63,7.63,0,0,0-7.5-7.5c-3.93,0-7.68,3.45-7.5,7.5a7.63,7.63,0,0,0,7.5,7.5Z"/><path class="cls-2" d="M109.06,746.8c3.93,0,7.69-3.45,7.5-7.5a7.62,7.62,0,0,0-7.5-7.5c-3.92,0-7.68,3.45-7.5,7.5a7.64,7.64,0,0,0,7.5,7.5Z"/><path class="cls-2" d="M508.89,151.45a5,5,0,1,0-5-5,5.05,5.05,0,0,0,5,5Z"/><path class="cls-2" d="M144.3,362.85a5,5,0,1,0-5-5,5.06,5.06,0,0,0,5,5Z"/><path class="cls-2" d="M276,80c3.22,0,3.23-5,0-5s-3.22,5,0,5Z"/><path class="cls-2" d="M343.45,248.52c3.21,0,3.22-5,0-5s-3.23,5,0,5Z"/><path class="cls-2" d="M466,421.63c3.22,0,3.22-5,0-5s-3.22,5,0,5Z"/><path class="cls-2" d="M228.55,747.93c3.22,0,3.23-5,0-5s-3.22,5,0,5Z"/><path class="cls-2" d="M631.45,819.93c3.21,0,3.22-5,0-5s-3.23,5,0,5Z"/><path class="cls-2" d="M485.68,947.87l1.53,1.54a1.93,1.93,0,0,0,.81.51,1.84,1.84,0,0,0,1,.22,1.88,1.88,0,0,0,1-.22,1.93,1.93,0,0,0,.81-.51l.39-.51a2.53,2.53,0,0,0,.34-1.26l-.09-.67a2.5,2.5,0,0,0-.64-1.1l-1.54-1.53a1.77,1.77,0,0,0-.8-.52,2.32,2.32,0,0,0-1.93,0,1.82,1.82,0,0,0-.8.52l-.39.5a2.47,2.47,0,0,0-.34,1.27l.09.66a2.41,2.41,0,0,0,.64,1.1Z"/><path class="cls-2" d="M331.19,605.46c3.22,0,3.22-5,0-5s-3.22,5,0,5Z"/><path class="cls-2" d="M133.57,600.86c3.22,0,3.23-5,0-5s-3.22,5,0,5Z"/><path class="cls-2" d="M666.68,288.35c3.22,0,3.22-5,0-5s-3.22,5,0,5Z"/><path class="cls-2" d="M619.19,669.8c3.22,0,3.22-5,0-5s-3.22,5,0,5Z"/><path class="cls-2" d="M410.85,792.35c3.22,0,3.22-5,0-5s-3.22,5,0,5Z"/><path class="cls-2" d="M72.3,913.37c3.22,0,3.22-5,0-5s-3.22,5,0,5Z"/><path class="cls-2" d="M299,1311.67c3.22,0,3.22-5,0-5s-3.22,5,0,5Z"/><path class="cls-2" d="M282.17,914.9c3.22,0,3.22-5,0-5s-3.22,5,0,5Z"/><path class="cls-2" d="M479.79,1209c3.21,0,3.22-5,0-5s-3.23,5,0,5Z"/><path class="cls-2" d="M66.17,1204.44c3.22,0,3.22-5,0-5s-3.22,5,0,5Z"/></g></g></svg>