<svg xmlns="http://www.w3.org/2000/svg" xmlns:xlink="http://www.w3.org/1999/xlink" viewBox="0 0 185 220.14"><defs><style>.cls-1{fill:url(#linear-gradient);}.cls-2{fill:url(#linear-gradient-2);}.cls-3{fill:url(#linear-gradient-3);}.cls-4{fill:url(#linear-gradient-4);}.cls-5{fill:url(#linear-gradient-5);}.cls-6{fill:url(#radial-gradient);}.cls-7{fill:url(#radial-gradient-2);}.cls-8{fill:#e6e315;}.cls-9{fill:#3a6db4;}.cls-10{fill:#00a3df;}.cls-11{fill:url(#linear-gradient-6);}.cls-12{fill:url(#linear-gradient-7);}</style><linearGradient id="linear-gradient" x1="45.8" y1="139.74" x2="44.29" y2="96.57" gradientUnits="userSpaceOnUse"><stop offset="0" stop-color="#5699b9"/><stop offset="0.41" stop-color="#7ab4cd"/><stop offset="1" stop-color="#b5dfee"/></linearGradient><linearGradient id="linear-gradient-2" x1="140.07" y1="136.45" x2="138.56" y2="93.29" xlink:href="#linear-gradient"/><linearGradient id="linear-gradient-3" x1="35.58" y1="200.27" x2="34.82" y2="158.91" xlink:href="#linear-gradient"/><linearGradient id="linear-gradient-4" x1="149.34" y1="198.17" x2="148.57" y2="156.81" xlink:href="#linear-gradient"/><linearGradient id="linear-gradient-5" x1="92.04" y1="151.53" x2="91.65" y2="54.17" xlink:href="#linear-gradient"/><radialGradient id="radial-gradient" cx="97.48" cy="100.2" r="72.56" gradientTransform="translate(-6.65 -0.31) scale(1.01 1)" gradientUnits="userSpaceOnUse"><stop offset="0" stop-color="#102e3f"/><stop offset="0.59" stop-color="#2c5163"/><stop offset="1" stop-color="#416c7f"/></radialGradient><radialGradient id="radial-gradient-2" cx="81.46" cy="-216.09" r="14.03" gradientTransform="matrix(0.02, 1.06, -0.68, 0, -66.86, -25)" gradientUnits="userSpaceOnUse"><stop offset="0" stop-color="#fff"/><stop offset="0.22" stop-color="#dbe3e6"/><stop offset="0.69" stop-color="#7f9ca9"/><stop offset="1" stop-color="#416c7f"/></radialGradient><linearGradient id="linear-gradient-6" x1="6.53" y1="187.79" x2="6.45" y2="167.45" xlink:href="#linear-gradient"/><linearGradient id="linear-gradient-7" x1="178.53" y1="187.79" x2="178.45" y2="167.45" xlink:href="#linear-gradient"/></defs><title>Asset 4</title><g id="Layer_2" data-name="Layer 2"><g id="Layer_1-2" data-name="Layer 1"><polygon class="cls-1" points="64 75.23 25 113.1 25 130.14 64 127.11 64 75.23"/><polygon class="cls-2" points="120 75.23 159 113.1 159 130.14 120 127.11 120 75.23"/><polygon class="cls-3" points="64 144.5 64 193.14 6 193.14 6 166.71 64 144.5"/><polygon class="cls-4" points="120 144.5 120 193.14 178 193.14 178 166.71 120 144.5"/><path class="cls-5" d="M123,203.14V65a144.83,144.83,0,0,0-12.55-35.12A272.51,272.51,0,0,0,92,0,272.51,272.51,0,0,0,73.55,29.83,144.83,144.83,0,0,0,61,65V203.14h7v11H61v6h62v-6h-6v-11Z"/><ellipse class="cls-6" cx="91.5" cy="83.14" rx="19.5" ry="54"/><ellipse class="cls-7" cx="83" cy="60.14" rx="7.03" ry="3.95" transform="translate(14.48 136.36) rotate(-83.97)"/><rect class="cls-8" x="61" y="160.14" width="62" height="23"/><rect class="cls-9" x="61" y="199.14" width="62" height="6"/><rect class="cls-10" x="61" y="214.14" width="62" height="3"/><rect class="cls-11" y="156.14" width="13" height="46" rx="4.88"/><rect class="cls-12" x="172" y="156.14" width="13" height="46" rx="4.88"/></g></g></svg>